<svg width="93" height="23" viewBox="0 0 93 23" fill="none" xmlns="http://www.w3.org/2000/svg">
<path d="M4.76 11.064L4.304 17.64C4.288 17.768 4.272 17.864 4.256 17.928C4.256 17.976 4.184 18 4.04 18H2.72C1.824 18 1.184 17.824 0.8 17.472C0.416 17.12 0.224 16.616 0.224 15.96C0.224 15.64 0.248 15.096 0.296 14.328C0.344 13.544 0.408 12.656 0.488 11.664C0.568 10.672 0.648 9.624 0.728 8.52C0.808 7.416 0.888 6.376 0.968 5.4C1.048 4.424 1.112 3.568 1.16 2.832C1.208 2.096 1.232 1.592 1.232 1.32C1.232 1.08 1.36 0.959999 1.616 0.959999H10.064C10.16 0.959999 10.248 0.983999 10.328 1.032C10.408 1.08 10.448 1.168 10.448 1.296L10.352 2.712C10.32 3.192 10.184 3.584 9.944 3.888C9.72 4.176 9.248 4.32 8.528 4.32H5.216L4.976 7.704H8.384C8.48 7.704 8.568 7.728 8.648 7.776C8.728 7.824 8.768 7.912 8.768 8.04L8.672 9.456C8.64 9.936 8.504 10.328 8.264 10.632C8.04 10.92 7.568 11.064 6.848 11.064H4.76ZM15.4196 7.008C15.4196 7.376 15.3956 7.816 15.3476 8.328C15.2996 8.824 15.2436 9.328 15.1796 9.84C15.1316 10.336 15.0836 10.808 15.0356 11.256C14.9876 11.688 14.9636 12.024 14.9636 12.264C14.9636 12.872 15.1076 13.328 15.3956 13.632C15.6996 13.92 16.0676 14.064 16.4996 14.064C17.2516 14.064 17.8516 13.672 18.2996 12.888C18.7476 12.104 19.0276 11.064 19.1396 9.768L19.5236 5.28C19.5396 5.104 19.5956 4.984 19.6916 4.92C19.8036 4.84 19.9236 4.8 20.0516 4.8H20.9156C21.2516 4.8 21.5636 4.832 21.8516 4.896C22.1556 4.944 22.4196 5.048 22.6436 5.208C22.8676 5.352 23.0436 5.552 23.1716 5.808C23.2996 6.064 23.3636 6.392 23.3636 6.792C23.3636 6.952 23.3476 7.256 23.3156 7.704C23.2996 8.136 23.2596 8.768 23.1956 9.6C23.1476 10.416 23.0756 11.456 22.9796 12.72C22.8836 13.968 22.7716 15.496 22.6436 17.304C22.5636 18.36 22.3236 19.232 21.9236 19.92C21.5396 20.624 21.0516 21.176 20.4596 21.576C19.8676 21.992 19.2036 22.28 18.4676 22.44C17.7316 22.6 16.9796 22.68 16.2116 22.68C15.3956 22.68 14.6436 22.608 13.9556 22.464C13.2836 22.32 12.6996 22.12 12.2036 21.864C11.7076 21.608 11.3156 21.312 11.0276 20.976C10.7556 20.64 10.6196 20.28 10.6196 19.896C10.6196 19.592 10.6836 19.328 10.8116 19.104C10.9556 18.88 11.1396 18.696 11.3636 18.552C11.5876 18.408 11.8436 18.296 12.1316 18.216C12.4356 18.152 12.7476 18.12 13.0676 18.12C13.2276 18.12 13.3396 18.2 13.4036 18.36C13.4836 18.52 13.5956 18.696 13.7396 18.888C13.8996 19.096 14.1476 19.28 14.4836 19.44C14.8196 19.6 15.3236 19.68 15.9956 19.68C16.5876 19.68 17.0676 19.536 17.4356 19.248C17.8036 18.96 18.0836 18.592 18.2756 18.144C18.4836 17.696 18.6196 17.208 18.6836 16.68C18.7476 16.152 18.7796 15.648 18.7796 15.168C18.5236 15.616 18.2356 15.984 17.9156 16.272C17.6116 16.544 17.2916 16.76 16.9556 16.92C16.6196 17.064 16.2836 17.16 15.9476 17.208C15.6116 17.256 15.2916 17.28 14.9876 17.28C14.3956 17.28 13.8516 17.2 13.3556 17.04C12.8756 16.88 12.4596 16.624 12.1076 16.272C11.7556 15.904 11.4836 15.432 11.2916 14.856C11.0996 14.28 11.0036 13.584 11.0036 12.768C11.0036 12.464 11.0196 12.064 11.0516 11.568C11.0836 11.056 11.1236 10.488 11.1716 9.864C11.2196 9.224 11.2676 8.536 11.3156 7.8C11.3796 7.064 11.4436 6.312 11.5076 5.544C11.5396 5.048 11.7636 4.8 12.1796 4.8H12.9476C13.4596 4.8 13.8756 4.848 14.1956 4.944C14.5156 5.04 14.7636 5.184 14.9396 5.376C15.1316 5.552 15.2596 5.784 15.3236 6.072C15.3876 6.344 15.4196 6.656 15.4196 7.008ZM33.668 15.888C33.668 15.536 33.692 15.08 33.74 14.52C33.804 13.944 33.86 13.344 33.908 12.72C33.972 12.08 34.028 11.464 34.076 10.872C34.14 10.28 34.172 9.784 34.172 9.384C34.172 8.968 34.068 8.6 33.86 8.28C33.668 7.944 33.284 7.776 32.708 7.776C32.148 7.776 31.684 7.912 31.316 8.184C30.948 8.456 30.636 8.952 30.38 9.672C30.14 10.392 29.94 11.384 29.78 12.648C29.62 13.912 29.468 15.536 29.324 17.52C29.308 17.712 29.268 17.84 29.204 17.904C29.14 17.968 29.004 18 28.796 18H27.932C27.436 18 27.028 17.952 26.708 17.856C26.404 17.744 26.156 17.592 25.964 17.4C25.788 17.208 25.66 16.976 25.58 16.704C25.516 16.416 25.484 16.088 25.484 15.72C25.484 15.48 25.492 15.144 25.508 14.712C25.54 14.264 25.588 13.656 25.652 12.888C25.716 12.104 25.788 11.12 25.868 9.936C25.964 8.736 26.076 7.256 26.204 5.496C26.22 5.144 26.26 4.936 26.324 4.872C26.372 4.824 26.5 4.8 26.708 4.8H27.644C28.124 4.8 28.516 4.856 28.82 4.968C29.14 5.08 29.396 5.232 29.588 5.424C29.78 5.6 29.916 5.816 29.996 6.072C30.076 6.312 30.124 6.56 30.14 6.816C30.636 5.968 31.204 5.384 31.844 5.064C32.484 4.728 33.284 4.56 34.244 4.56C34.916 4.56 35.5 4.632 35.996 4.776C36.492 4.92 36.9 5.168 37.22 5.52C37.556 5.856 37.804 6.304 37.964 6.864C38.124 7.408 38.204 8.088 38.204 8.904C38.204 9.16 38.188 9.528 38.156 10.008C38.124 10.488 38.084 11.016 38.036 11.592C37.988 12.152 37.932 12.744 37.868 13.368C37.82 13.976 37.772 14.544 37.724 15.072C37.676 15.6 37.636 16.064 37.604 16.464C37.572 16.864 37.556 17.128 37.556 17.256C37.556 17.608 37.516 17.824 37.436 17.904C37.356 17.968 37.18 18 36.908 18H36.14C35.628 18 35.212 17.952 34.892 17.856C34.572 17.76 34.324 17.624 34.148 17.448C33.972 17.272 33.844 17.056 33.764 16.8C33.7 16.528 33.668 16.224 33.668 15.888ZM39.6234 15.048C39.6234 13.608 40.2714 12.48 41.5674 11.664C42.8634 10.848 44.7754 10.408 47.3034 10.344C47.3194 10.168 47.3274 10.024 47.3274 9.912C47.3434 9.784 47.3514 9.632 47.3514 9.456C47.3514 8.944 47.2554 8.536 47.0634 8.232C46.8714 7.928 46.4714 7.776 45.8634 7.776C45.5274 7.776 45.2554 7.824 45.0474 7.92C44.8394 8.016 44.6714 8.152 44.5434 8.328C44.4154 8.488 44.3114 8.688 44.2314 8.928C44.1514 9.168 44.0794 9.432 44.0154 9.72C43.9834 9.864 43.9114 9.96 43.7994 10.008C43.6874 10.04 43.5114 10.056 43.2714 10.056C41.6394 10.056 40.8234 9.44 40.8234 8.208C40.8234 7.712 40.9354 7.24 41.1594 6.792C41.3994 6.344 41.7434 5.96 42.1914 5.64C42.6554 5.304 43.2314 5.04 43.9194 4.848C44.6074 4.656 45.4074 4.56 46.3194 4.56C48.0954 4.56 49.3834 4.928 50.1834 5.664C50.9834 6.4 51.3834 7.44 51.3834 8.784C51.3834 8.96 51.3594 9.28 51.3114 9.744C51.2794 10.192 51.2314 10.672 51.1674 11.184C51.1194 11.68 51.0714 12.152 51.0234 12.6C50.9914 13.048 50.9754 13.36 50.9754 13.536C50.9754 13.936 51.0474 14.224 51.1914 14.4C51.3354 14.56 51.4954 14.672 51.6714 14.736C51.8634 14.8 52.0314 14.848 52.1754 14.88C52.3194 14.912 52.3914 14.992 52.3914 15.12C52.3914 15.472 52.3434 15.832 52.2474 16.2C52.1514 16.568 51.9914 16.904 51.7674 17.208C51.5594 17.512 51.2634 17.76 50.8794 17.952C50.5114 18.144 50.0554 18.24 49.5114 18.24C48.7434 18.24 48.1674 18.056 47.7834 17.688C47.3994 17.32 47.1434 16.808 47.0154 16.152C46.6314 16.712 46.1274 17.2 45.5034 17.616C44.8954 18.032 44.0954 18.24 43.1034 18.24C42.6234 18.24 42.1674 18.184 41.7354 18.072C41.3194 17.96 40.9514 17.776 40.6314 17.52C40.3274 17.264 40.0794 16.936 39.8874 16.536C39.7114 16.12 39.6234 15.624 39.6234 15.048ZM47.0874 12.312C46.6714 12.312 46.2634 12.344 45.8634 12.408C45.4634 12.472 45.1034 12.576 44.7834 12.72C44.4794 12.848 44.2314 13.024 44.0394 13.248C43.8474 13.472 43.7514 13.744 43.7514 14.064C43.7514 14.432 43.8634 14.688 44.0874 14.832C44.3274 14.976 44.5834 15.048 44.8554 15.048C45.1114 15.048 45.3674 14.992 45.6234 14.88C45.8794 14.768 46.1034 14.6 46.2954 14.376C46.5034 14.136 46.6794 13.848 46.8234 13.512C46.9674 13.176 47.0554 12.776 47.0874 12.312ZM62.0508 15.888C62.0508 15.536 62.0748 15.08 62.1228 14.52C62.1868 13.944 62.2428 13.344 62.2908 12.72C62.3548 12.08 62.4108 11.464 62.4588 10.872C62.5228 10.28 62.5548 9.784 62.5548 9.384C62.5548 8.968 62.4508 8.6 62.2428 8.28C62.0508 7.944 61.6668 7.776 61.0908 7.776C60.5308 7.776 60.0668 7.912 59.6988 8.184C59.3308 8.456 59.0188 8.952 58.7628 9.672C58.5228 10.392 58.3228 11.384 58.1628 12.648C58.0028 13.912 57.8508 15.536 57.7068 17.52C57.6908 17.712 57.6508 17.84 57.5868 17.904C57.5228 17.968 57.3868 18 57.1788 18H56.3148C55.8188 18 55.4108 17.952 55.0908 17.856C54.7868 17.744 54.5388 17.592 54.3468 17.4C54.1708 17.208 54.0428 16.976 53.9628 16.704C53.8988 16.416 53.8668 16.088 53.8668 15.72C53.8668 15.48 53.8748 15.144 53.8908 14.712C53.9228 14.264 53.9708 13.656 54.0348 12.888C54.0988 12.104 54.1708 11.12 54.2508 9.936C54.3468 8.736 54.4588 7.256 54.5868 5.496C54.6028 5.144 54.6428 4.936 54.7068 4.872C54.7548 4.824 54.8828 4.8 55.0908 4.8H56.0268C56.5068 4.8 56.8988 4.856 57.2028 4.968C57.5228 5.08 57.7788 5.232 57.9708 5.424C58.1628 5.6 58.2988 5.816 58.3788 6.072C58.4588 6.312 58.5068 6.56 58.5228 6.816C59.0188 5.968 59.5868 5.384 60.2268 5.064C60.8668 4.728 61.6668 4.56 62.6268 4.56C63.2988 4.56 63.8828 4.632 64.3788 4.776C64.8748 4.92 65.2828 5.168 65.6028 5.52C65.9388 5.856 66.1868 6.304 66.3468 6.864C66.5068 7.408 66.5868 8.088 66.5868 8.904C66.5868 9.16 66.5708 9.528 66.5388 10.008C66.5068 10.488 66.4668 11.016 66.4188 11.592C66.3708 12.152 66.3148 12.744 66.2508 13.368C66.2028 13.976 66.1548 14.544 66.1068 15.072C66.0588 15.6 66.0188 16.064 65.9868 16.464C65.9548 16.864 65.9388 17.128 65.9388 17.256C65.9388 17.608 65.8988 17.824 65.8188 17.904C65.7388 17.968 65.5628 18 65.2908 18H64.5228C64.0108 18 63.5948 17.952 63.2748 17.856C62.9548 17.76 62.7068 17.624 62.5308 17.448C62.3548 17.272 62.2268 17.056 62.1468 16.8C62.0828 16.528 62.0508 16.224 62.0508 15.888ZM74.7742 15.048C75.2382 15.048 75.6382 14.984 75.9742 14.856C76.3262 14.728 76.6302 14.584 76.8862 14.424C77.1422 14.264 77.3582 14.12 77.5342 13.992C77.7102 13.864 77.8702 13.8 78.0142 13.8C78.3822 13.8 78.5662 14.04 78.5662 14.52C78.5662 14.632 78.5422 14.792 78.4942 15C78.4462 15.192 78.3822 15.4 78.3022 15.624C78.2222 15.832 78.1342 16.032 78.0382 16.224C77.9582 16.416 77.8782 16.56 77.7982 16.656C77.7182 16.736 77.5742 16.864 77.3662 17.04C77.1742 17.216 76.9102 17.392 76.5742 17.568C76.2382 17.744 75.8462 17.896 75.3982 18.024C74.9502 18.168 74.4542 18.24 73.9102 18.24C73.3022 18.24 72.6702 18.152 72.0142 17.976C71.3742 17.784 70.7902 17.464 70.2622 17.016C69.7342 16.552 69.2942 15.936 68.9422 15.168C68.6062 14.384 68.4382 13.408 68.4382 12.24C68.4382 11.824 68.4622 11.352 68.5102 10.824C68.5742 10.28 68.6942 9.728 68.8702 9.168C69.0462 8.592 69.2782 8.032 69.5662 7.488C69.8702 6.928 70.2702 6.432 70.7662 6C71.2622 5.568 71.8542 5.224 72.5422 4.968C73.2462 4.696 74.0782 4.56 75.0382 4.56C75.8222 4.56 76.4942 4.656 77.0542 4.848C77.6302 5.024 78.1022 5.272 78.4702 5.592C78.8382 5.896 79.1102 6.256 79.2862 6.672C79.4782 7.088 79.5742 7.536 79.5742 8.016C79.5742 8.88 79.3022 9.52 78.7582 9.936C78.2142 10.336 77.4462 10.536 76.4542 10.536C76.2142 10.536 76.0462 10.52 75.9502 10.488C75.8702 10.44 75.8302 10.344 75.8302 10.2C75.8302 9.816 75.8222 9.472 75.8062 9.168C75.7902 8.864 75.7422 8.608 75.6622 8.4C75.5982 8.192 75.4942 8.032 75.3502 7.92C75.2062 7.808 74.9982 7.752 74.7262 7.752C74.2302 7.752 73.8302 7.912 73.5262 8.232C73.2382 8.552 73.0142 8.944 72.8542 9.408C72.7102 9.856 72.6142 10.32 72.5662 10.8C72.5342 11.28 72.5182 11.68 72.5182 12C72.5182 13.136 72.6942 13.928 73.0462 14.376C73.4142 14.824 73.9902 15.048 74.7742 15.048ZM86.4577 18.24C85.7537 18.24 85.0497 18.152 84.3457 17.976C83.6577 17.8 83.0337 17.496 82.4737 17.064C81.9297 16.632 81.4817 16.056 81.1297 15.336C80.7777 14.616 80.6017 13.712 80.6017 12.624C80.6017 12.224 80.6337 11.744 80.6977 11.184C80.7617 10.624 80.8817 10.048 81.0577 9.456C81.2497 8.864 81.5057 8.28 81.8257 7.704C82.1617 7.112 82.5937 6.584 83.1217 6.12C83.6497 5.656 84.2897 5.28 85.0417 4.992C85.7937 4.704 86.6897 4.56 87.7297 4.56C88.5617 4.56 89.2657 4.656 89.8417 4.848C90.4177 5.04 90.8817 5.304 91.2337 5.64C91.5857 5.96 91.8417 6.336 92.0017 6.768C92.1617 7.2 92.2417 7.664 92.2417 8.16C92.2417 8.896 92.0897 9.52 91.7857 10.032C91.4977 10.544 91.1137 10.976 90.6337 11.328C90.1697 11.664 89.6497 11.928 89.0737 12.12C88.4977 12.312 87.9297 12.464 87.3697 12.576C86.8097 12.672 86.2897 12.736 85.8097 12.768C85.3457 12.784 84.9857 12.792 84.7297 12.792C84.7297 13.096 84.7697 13.4 84.8497 13.704C84.9457 13.992 85.0817 14.248 85.2577 14.472C85.4337 14.696 85.6657 14.88 85.9537 15.024C86.2417 15.168 86.5937 15.24 87.0097 15.24C87.4257 15.24 87.7457 15.176 87.9697 15.048C88.2097 14.904 88.4017 14.752 88.5457 14.592C88.6897 14.416 88.8097 14.264 88.9057 14.136C89.0177 13.992 89.1617 13.92 89.3377 13.92C89.4177 13.92 89.5537 13.944 89.7457 13.992C89.9537 14.024 90.1617 14.104 90.3697 14.232C90.5777 14.36 90.7617 14.536 90.9217 14.76C91.0817 14.984 91.1617 15.272 91.1617 15.624C91.1617 16.088 91.0177 16.488 90.7297 16.824C90.4417 17.16 90.0657 17.432 89.6017 17.64C89.1537 17.848 88.6497 18 88.0897 18.096C87.5297 18.192 86.9857 18.24 86.4577 18.24ZM86.9137 7.752C86.5617 7.752 86.2577 7.856 86.0017 8.064C85.7617 8.256 85.5537 8.504 85.3777 8.808C85.2177 9.112 85.0897 9.448 84.9937 9.816C84.9137 10.184 84.8497 10.536 84.8017 10.872C85.7937 10.856 86.5937 10.688 87.2017 10.368C87.8257 10.048 88.1377 9.592 88.1377 9C88.1377 8.68 88.0337 8.392 87.8257 8.136C87.6337 7.88 87.3297 7.752 86.9137 7.752Z" fill="black"/>
</svg>
