<svg width="65" height="23" viewBox="0 0 65 23" fill="none" xmlns="http://www.w3.org/2000/svg">
<path d="M7.824 0.719999C9.328 0.719999 10.44 1.048 11.16 1.704C11.896 2.36 12.264 3.216 12.264 4.272C12.264 5.168 12.016 5.856 11.52 6.336C11.024 6.8 10.312 7.032 9.384 7.032C9.096 7.032 8.912 7.008 8.832 6.96C8.752 6.896 8.712 6.776 8.712 6.6C8.712 6.44 8.696 6.232 8.664 5.976C8.648 5.72 8.592 5.472 8.496 5.232C8.4 4.992 8.248 4.792 8.04 4.632C7.832 4.456 7.544 4.368 7.176 4.368C6.664 4.368 6.208 4.528 5.808 4.848C5.408 5.152 5.208 5.552 5.208 6.048C5.208 6.48 5.368 6.832 5.688 7.104C6.024 7.376 6.44 7.632 6.936 7.872C7.432 8.096 7.968 8.328 8.544 8.568C9.136 8.808 9.68 9.128 10.176 9.528C10.672 9.912 11.08 10.4 11.4 10.992C11.736 11.568 11.904 12.304 11.904 13.2C11.904 13.904 11.784 14.568 11.544 15.192C11.32 15.8 10.976 16.336 10.512 16.8C10.064 17.248 9.488 17.6 8.784 17.856C8.096 18.112 7.288 18.24 6.36 18.24C5.56 18.24 4.816 18.152 4.128 17.976C3.456 17.8 2.864 17.584 2.352 17.328C1.856 17.056 1.464 16.768 1.176 16.464C0.888 16.144 0.744 15.856 0.744 15.6C0.744 14.544 0.8 13.784 0.912 13.32C1.04 12.856 1.264 12.624 1.584 12.624C1.808 12.624 2.04 12.72 2.28 12.912C2.536 13.104 2.824 13.32 3.144 13.56C3.464 13.8 3.832 14.016 4.248 14.208C4.68 14.4 5.176 14.496 5.736 14.496C5.96 14.496 6.176 14.48 6.384 14.448C6.608 14.4 6.8 14.328 6.96 14.232C7.136 14.136 7.272 14.008 7.368 13.848C7.48 13.688 7.536 13.496 7.536 13.272C7.536 12.872 7.384 12.552 7.08 12.312C6.776 12.072 6.392 11.856 5.928 11.664C5.464 11.456 4.96 11.248 4.416 11.04C3.888 10.816 3.392 10.52 2.928 10.152C2.464 9.768 2.08 9.28 1.776 8.688C1.472 8.096 1.32 7.336 1.32 6.408C1.32 5.368 1.512 4.488 1.896 3.768C2.296 3.048 2.8 2.464 3.408 2.016C4.032 1.552 4.728 1.224 5.496 1.032C6.28 0.823999 7.056 0.719999 7.824 0.719999ZM22.2724 4.56C23.7764 4.56 24.9044 5.024 25.6564 5.952C26.4244 6.88 26.8084 8.344 26.8084 10.344C26.8084 11.592 26.6644 12.704 26.3764 13.68C26.0884 14.656 25.6884 15.488 25.1764 16.176C24.6644 16.848 24.0644 17.36 23.3764 17.712C22.6884 18.064 21.9444 18.24 21.1444 18.24C20.2964 18.24 19.6324 18.056 19.1524 17.688C18.6724 17.32 18.2964 16.8 18.0244 16.128C17.9764 16.704 17.9364 17.144 17.9044 17.448C17.8724 17.752 17.8484 17.992 17.8324 18.168C17.8164 18.36 17.8004 18.528 17.7844 18.672C17.7844 18.816 17.7684 19.008 17.7364 19.248C17.7204 19.488 17.6964 19.816 17.6644 20.232C17.6324 20.648 17.5844 21.224 17.5204 21.96C17.5044 22.152 17.4644 22.28 17.4004 22.344C17.3364 22.408 17.2004 22.44 16.9924 22.44H16.1284C15.6324 22.44 15.2244 22.384 14.9044 22.272C14.6004 22.176 14.3524 22.032 14.1604 21.84C13.9844 21.648 13.8564 21.408 13.7764 21.12C13.7124 20.848 13.6804 20.528 13.6804 20.16C13.6804 20 13.7044 19.568 13.7524 18.864C13.8004 18.16 13.8564 17.32 13.9204 16.344C14.0004 15.352 14.0804 14.288 14.1604 13.152C14.2564 12.016 14.3444 10.936 14.4244 9.912C14.5044 8.872 14.5684 7.952 14.6164 7.152C14.6804 6.352 14.7284 5.8 14.7604 5.496C14.7764 5.144 14.8164 4.936 14.8804 4.872C14.9284 4.824 15.0564 4.8 15.2644 4.8H16.2004C17.0644 4.8 17.6884 4.984 18.0724 5.352C18.4724 5.704 18.6724 6.128 18.6724 6.624C19.0404 5.888 19.5124 5.36 20.0884 5.04C20.6804 4.72 21.4084 4.56 22.2724 4.56ZM20.5204 7.752C19.7044 7.752 19.1044 8.104 18.7204 8.808C18.3364 9.512 18.1444 10.472 18.1444 11.688C18.1444 12.104 18.1684 12.512 18.2164 12.912C18.2804 13.312 18.3844 13.672 18.5284 13.992C18.6724 14.312 18.8644 14.568 19.1044 14.76C19.3604 14.952 19.6804 15.048 20.0644 15.048C20.7524 15.048 21.3284 14.712 21.7924 14.04C22.2564 13.368 22.4884 12.312 22.4884 10.872C22.4884 10.472 22.4564 10.088 22.3924 9.72C22.3444 9.336 22.2484 9 22.1044 8.712C21.9604 8.424 21.7604 8.192 21.5044 8.016C21.2484 7.84 20.9204 7.752 20.5204 7.752ZM36.4157 10.536C36.3197 10.536 36.2077 10.536 36.0797 10.536C35.9677 10.52 35.8557 10.504 35.7437 10.488C35.6317 10.456 35.5357 10.424 35.4557 10.392C35.3757 10.344 35.3357 10.288 35.3357 10.224C35.3357 10.016 35.3437 9.824 35.3597 9.648C35.3757 9.472 35.3837 9.288 35.3837 9.096C35.3837 8.744 35.3357 8.456 35.2397 8.232C35.1437 8.008 34.9517 7.896 34.6637 7.896C34.2157 7.896 33.8397 8.192 33.5357 8.784C33.2477 9.36 33.0637 10.232 32.9837 11.4C32.9517 11.912 32.9037 12.496 32.8397 13.152C32.7917 13.792 32.7437 14.416 32.6957 15.024C32.6477 15.616 32.6077 16.144 32.5757 16.608C32.5437 17.072 32.5277 17.376 32.5277 17.52C32.5277 17.68 32.4717 17.8 32.3597 17.88C32.2477 17.96 32.1277 18 31.9997 18H31.1357C30.6397 18 30.2317 17.952 29.9117 17.856C29.6077 17.744 29.3597 17.592 29.1677 17.4C28.9917 17.208 28.8637 16.976 28.7837 16.704C28.7197 16.416 28.6877 16.088 28.6877 15.72C28.6877 15.48 28.6957 15.144 28.7117 14.712C28.7437 14.264 28.7917 13.656 28.8557 12.888C28.9197 12.104 28.9917 11.12 29.0717 9.936C29.1677 8.736 29.2797 7.256 29.4077 5.496C29.4397 5.032 29.6077 4.8 29.9117 4.8H30.8477C31.2957 4.8 31.6717 4.848 31.9757 4.944C32.2797 5.04 32.5277 5.176 32.7197 5.352C32.9117 5.512 33.0477 5.704 33.1277 5.928C33.2237 6.152 33.2877 6.384 33.3197 6.624C33.5117 6.256 33.7357 5.944 33.9917 5.688C34.2637 5.416 34.5437 5.2 34.8317 5.04C35.1197 4.864 35.4157 4.744 35.7197 4.68C36.0237 4.6 36.3037 4.56 36.5597 4.56C36.8637 4.56 37.1677 4.616 37.4717 4.728C37.7917 4.84 38.0797 5.008 38.3357 5.232C38.5917 5.456 38.7917 5.744 38.9357 6.096C39.0957 6.448 39.1757 6.864 39.1757 7.344C39.1757 7.776 39.1117 8.184 38.9837 8.568C38.8557 8.952 38.6717 9.296 38.4317 9.6C38.1917 9.888 37.8957 10.12 37.5437 10.296C37.2077 10.456 36.8317 10.536 36.4157 10.536ZM45.6921 18.24C44.9881 18.24 44.2841 18.152 43.5801 17.976C42.8921 17.8 42.2681 17.496 41.7081 17.064C41.1641 16.632 40.7161 16.056 40.3641 15.336C40.0121 14.616 39.8361 13.712 39.8361 12.624C39.8361 12.224 39.8681 11.744 39.9321 11.184C39.9961 10.624 40.1161 10.048 40.2921 9.456C40.4841 8.864 40.7401 8.28 41.0601 7.704C41.3961 7.112 41.8281 6.584 42.3561 6.12C42.8841 5.656 43.5241 5.28 44.2761 4.992C45.0281 4.704 45.9241 4.56 46.9641 4.56C47.7961 4.56 48.5001 4.656 49.0761 4.848C49.6521 5.04 50.1161 5.304 50.4681 5.64C50.8201 5.96 51.0761 6.336 51.2361 6.768C51.3961 7.2 51.4761 7.664 51.4761 8.16C51.4761 8.896 51.3241 9.52 51.0201 10.032C50.7321 10.544 50.3481 10.976 49.8681 11.328C49.4041 11.664 48.8841 11.928 48.3081 12.12C47.7321 12.312 47.1641 12.464 46.6041 12.576C46.0441 12.672 45.5241 12.736 45.0441 12.768C44.5801 12.784 44.2201 12.792 43.9641 12.792C43.9641 13.096 44.0041 13.4 44.0841 13.704C44.1801 13.992 44.3161 14.248 44.4921 14.472C44.6681 14.696 44.9001 14.88 45.1881 15.024C45.4761 15.168 45.8281 15.24 46.2441 15.24C46.6601 15.24 46.9801 15.176 47.2041 15.048C47.4441 14.904 47.6361 14.752 47.7801 14.592C47.9241 14.416 48.0441 14.264 48.1401 14.136C48.2521 13.992 48.3961 13.92 48.5721 13.92C48.6521 13.92 48.7881 13.944 48.9801 13.992C49.1881 14.024 49.3961 14.104 49.6041 14.232C49.8121 14.36 49.9961 14.536 50.1561 14.76C50.3161 14.984 50.3961 15.272 50.3961 15.624C50.3961 16.088 50.2521 16.488 49.9641 16.824C49.6761 17.16 49.3001 17.432 48.8361 17.64C48.3881 17.848 47.8841 18 47.3241 18.096C46.7641 18.192 46.2201 18.24 45.6921 18.24ZM46.1481 7.752C45.7961 7.752 45.4921 7.856 45.2361 8.064C44.9961 8.256 44.7881 8.504 44.6121 8.808C44.4521 9.112 44.3241 9.448 44.2281 9.816C44.1481 10.184 44.0841 10.536 44.0361 10.872C45.0281 10.856 45.8281 10.688 46.4361 10.368C47.0601 10.048 47.3721 9.592 47.3721 9C47.3721 8.68 47.2681 8.392 47.0601 8.136C46.8681 7.88 46.5641 7.752 46.1481 7.752ZM58.4655 18.24C57.7615 18.24 57.0575 18.152 56.3535 17.976C55.6655 17.8 55.0415 17.496 54.4815 17.064C53.9375 16.632 53.4895 16.056 53.1375 15.336C52.7855 14.616 52.6095 13.712 52.6095 12.624C52.6095 12.224 52.6415 11.744 52.7055 11.184C52.7695 10.624 52.8895 10.048 53.0655 9.456C53.2575 8.864 53.5135 8.28 53.8335 7.704C54.1695 7.112 54.6015 6.584 55.1295 6.12C55.6575 5.656 56.2975 5.28 57.0495 4.992C57.8015 4.704 58.6975 4.56 59.7375 4.56C60.5695 4.56 61.2735 4.656 61.8495 4.848C62.4255 5.04 62.8895 5.304 63.2415 5.64C63.5935 5.96 63.8495 6.336 64.0095 6.768C64.1695 7.2 64.2495 7.664 64.2495 8.16C64.2495 8.896 64.0975 9.52 63.7935 10.032C63.5055 10.544 63.1215 10.976 62.6415 11.328C62.1775 11.664 61.6575 11.928 61.0815 12.12C60.5055 12.312 59.9375 12.464 59.3775 12.576C58.8175 12.672 58.2975 12.736 57.8175 12.768C57.3535 12.784 56.9935 12.792 56.7375 12.792C56.7375 13.096 56.7775 13.4 56.8575 13.704C56.9535 13.992 57.0895 14.248 57.2655 14.472C57.4415 14.696 57.6735 14.88 57.9615 15.024C58.2495 15.168 58.6015 15.24 59.0175 15.24C59.4335 15.24 59.7535 15.176 59.9775 15.048C60.2175 14.904 60.4095 14.752 60.5535 14.592C60.6975 14.416 60.8175 14.264 60.9135 14.136C61.0255 13.992 61.1695 13.92 61.3455 13.92C61.4255 13.92 61.5615 13.944 61.7535 13.992C61.9615 14.024 62.1695 14.104 62.3775 14.232C62.5855 14.36 62.7695 14.536 62.9295 14.76C63.0895 14.984 63.1695 15.272 63.1695 15.624C63.1695 16.088 63.0255 16.488 62.7375 16.824C62.4495 17.16 62.0735 17.432 61.6095 17.64C61.1615 17.848 60.6575 18 60.0975 18.096C59.5375 18.192 58.9935 18.24 58.4655 18.24ZM58.9215 7.752C58.5695 7.752 58.2655 7.856 58.0095 8.064C57.7695 8.256 57.5615 8.504 57.3855 8.808C57.2255 9.112 57.0975 9.448 57.0015 9.816C56.9215 10.184 56.8575 10.536 56.8095 10.872C57.8015 10.856 58.6015 10.688 59.2095 10.368C59.8335 10.048 60.1455 9.592 60.1455 9C60.1455 8.68 60.0415 8.392 59.8335 8.136C59.6415 7.88 59.3375 7.752 58.9215 7.752Z" fill="#FA8D0C"/>
</svg>
